<svg class="icon" viewBox="0 0 1024 1024" xmlns="http://www.w3.org/2000/svg" width="16" height="16"><defs><style/></defs><path d="M254.976 448.512q27.648 0 47.104 19.456t19.456 47.104q0 26.624-19.456 46.592t-47.104 19.968-47.104-19.968-19.456-46.592q0-27.648 19.456-47.104t47.104-19.456zM771.072 66.56q45.056 0 79.872 15.872t58.88 40.96 36.864 56.832 12.8 62.464v523.264q0 23.552-10.752 46.08t-28.672 40.96-40.96 29.696-47.616 11.264V321.536q0-26.624-10.24-49.664T793.6 231.424t-40.448-27.648-49.664-10.24H128q0-22.528 10.24-45.056t27.648-40.96 40.96-29.696 50.176-11.264h514.048zm-89.088 191.488q46.08 0 65.536 25.088t19.456 67.072v603.136q0 25.6-21.504 48.128T691.2 1024H70.656q-27.648 0-49.152-22.528T0 947.2V332.8q0-32.768 17.92-53.76t47.616-20.992h616.448zM640 413.696q0-11.264-7.168-18.432t-18.432-7.168H152.576q-11.264 0-18.432 7.168t-7.168 18.432v228.352q9.216 11.264 16.896 25.088t18.944 26.112 29.696 20.992 51.2 8.704q48.128 0 78.336-15.36t53.248-38.912 43.008-50.688 47.616-51.2 68.608-40.96T640 506.88v-93.184z"/></svg>